<svg width="800" height="800" viewBox="0 0 800 800" fill="none" xmlns="http://www.w3.org/2000/svg">
<path fill-rule="evenodd" clip-rule="evenodd" d="M800 0.260288C800 0.329321 799.973 0.395526 799.924 0.44434L0.44435 799.924C0.395532 799.973 0.329353 800 0.260313 800V800C0.116546 800 0 799.883 0 799.74V400C0 179.086 179.086 0 400 0H799.74C799.883 0 800 0.116535 800 0.260288V0.260288Z" fill="#7699D4"/>
<path fill-rule="evenodd" clip-rule="evenodd" d="M2.27533e-08 799.74C2.87883e-08 799.671 0.0274232 799.604 0.0762367 799.556L799.556 0.0762111C799.605 0.0273929 799.671 -2.87931e-08 799.74 -2.27578e-08V-2.27578e-08C799.884 -1.01901e-08 800 0.116546 800 0.260313L800 400C800 620.914 620.914 800 400 800L0.260305 800C0.116552 800 1.0186e-08 799.883 2.27533e-08 799.74V799.74Z" fill="#D9D9D9"/>
<circle cx="400" cy="400" r="208" fill="white"/>
<path fill-rule="evenodd" clip-rule="evenodd" d="M400.175 483.789C442.878 483.789 477.495 437.722 477.495 380.895C477.495 324.067 442.878 278 400.175 278C357.473 278 322.855 324.067 322.855 380.895C322.855 437.722 357.473 483.789 400.175 483.789ZM400.175 464.757C434.994 464.757 463.22 427.211 463.22 380.895C463.22 334.579 434.994 297.033 400.175 297.033C365.356 297.033 337.13 334.579 337.13 380.895C337.13 427.211 365.356 464.757 400.175 464.757Z" fill="#EC5F59"/>
<rect x="296" y="364.401" width="209" height="157.626" rx="16" fill="#EC5F59"/>
</svg>
